<svg xmlns="http://www.w3.org/2000/svg" viewBox="0 0 64 64" width="64" height="64">
  <!-- Labrador head with characteristic features -->
  <circle cx="32" cy="32" r="30" fill="#f8f9fa"/>
  
  <!-- Main head shape - broader for lab -->
  <ellipse cx="32" cy="30" rx="18" ry="16" fill="#1a1a1a"/>
  
  <!-- Characteristic lab ears - longer and droopy -->
  <ellipse cx="19" cy="24" rx="6" ry="12" fill="#0f0f0f" transform="rotate(-15 19 24)"/>
  <ellipse cx="45" cy="24" rx="6" ry="12" fill="#0f0f0f" transform="rotate(15 45 24)"/>
  
  <!-- Broader snout typical of labs -->
  <ellipse cx="32" cy="38" rx="8" ry="6" fill="#0f0f0f"/>
  
  <!-- Kind, alert eyes -->
  <circle cx="26" cy="26" r="3" fill="#fff"/>
  <circle cx="38" cy="26" r="3" fill="#fff"/>
  <circle cx="26" cy="26" r="2" fill="#8B4513"/>
  <circle cx="38" cy="26" r="2" fill="#8B4513"/>
  <circle cx="26.5" cy="25.5" r="0.8" fill="#fff"/>
  <circle cx="38.5" cy="25.5" r="0.8" fill="#fff"/>
  
  <!-- Prominent nose -->
  <ellipse cx="32" cy="36" rx="2.5" ry="2" fill="#000"/>
  
  <!-- Gentle mouth expression -->
  <path d="M32 38 Q28 40 26 39" stroke="#000" stroke-width="1.5" fill="none" stroke-linecap="round"/>
  <path d="M32 38 Q36 40 38 39" stroke="#000" stroke-width="1.5" fill="none" stroke-linecap="round"/>
</svg>