<svg xmlns="http://www.w3.org/2000/svg" viewBox="0 0 64 64" width="64" height="64">
  <!-- Background circle -->
  <circle cx="32" cy="32" r="32" fill="#f8f9fa"/>
  
  <!-- Lab silhouette based on the provided image -->
  <g transform="translate(8, 12) scale(0.75)">
    <!-- Main head shape -->
    <path d="M15 25 Q15 15 25 10 Q35 8 45 12 Q50 15 50 22 Q50 28 48 32 Q45 38 40 40 Q30 42 20 40 Q15 35 15 25" fill="#1a1a1a"/>
    
    <!-- Ear -->
    <path d="M12 20 Q8 18 8 25 Q8 32 12 35 Q15 32 15 25 Q15 20 12 20" fill="#1a1a1a"/>
    
    <!-- Snout -->
    <path d="M40 32 Q48 35 50 40 Q48 45 42 45 Q38 42 40 32" fill="#1a1a1a"/>
    
    <!-- Eye -->
    <circle cx="32" cy="22" r="2.5" fill="#fff"/>
    <circle cx="32.5" cy="21.5" r="1.5" fill="#000"/>
    <circle cx="33" cy="21" r="0.5" fill="#fff"/>
    
    <!-- Nose -->
    <ellipse cx="45" cy="38" rx="2" ry="1.5" fill="#000"/>
    
    <!-- Mouth line -->
    <path d="M42 42 Q40 44 38 43" stroke="#000" stroke-width="1" fill="none" stroke-linecap="round"/>
  </g>
</svg>